<svg width="34" height="33" viewBox="0 0 34 33" fill="none" xmlns="http://www.w3.org/2000/svg">
<path fill-rule="evenodd" clip-rule="evenodd" d="M2.31085 1.3823L0.731934 0.480591L0.815997 2.2969L2.00112 27.9034L2.06499 29.2834L3.35599 28.7917L17.2449 23.5016L15.8518 28.3701L13.3648 26.2404C12.9453 25.8812 12.314 25.9301 11.9548 26.3496C11.5955 26.7691 11.6444 27.4004 12.0639 27.7596L15.7342 30.9024L16.9174 31.9157L17.346 30.418L19.39 23.2751L19.5797 22.6124L19.7258 22.5567L19.6284 22.4423L19.6651 22.3137L19.4718 22.2584L18.8076 21.4781L9.76144 10.8518C9.40343 10.4313 8.7723 10.3806 8.35176 10.7386C7.93123 11.0966 7.88053 11.7277 8.23853 12.1483L16.3665 21.696L3.93512 26.431L2.89792 4.02074L27.616 18.137L21.2148 20.0416C20.6855 20.1991 20.384 20.7559 20.5415 21.2852C20.699 21.8146 21.2558 22.116 21.7852 21.9585L30.428 19.387L32.6697 18.72L30.6388 17.5602L2.31085 1.3823Z" fill="#59A4FB"/>
<path d="M0.731934 0.480591L0.855913 0.263499L0.461185 0.0380722L0.482201 0.492149L0.731934 0.480591ZM2.31085 1.3823L2.43483 1.1652L2.31085 1.3823ZM0.815997 2.2969L1.06573 2.28534L0.815997 2.2969ZM2.00112 27.9034L1.75139 27.915L2.00112 27.9034ZM2.06499 29.2834L1.81526 29.295L1.83123 29.64L2.15398 29.517L2.06499 29.2834ZM3.35599 28.7917L3.44498 29.0253L3.35599 28.7917ZM17.2449 23.5016L17.4853 23.5704L17.6227 23.0902L17.1559 23.268L17.2449 23.5016ZM15.8518 28.3701L15.6892 28.56L15.985 28.8133L16.0921 28.4388L15.8518 28.3701ZM13.3648 26.2404L13.2021 26.4303V26.4303L13.3648 26.2404ZM11.9548 26.3496L11.7649 26.187L11.9548 26.3496ZM12.0639 27.7596L12.2265 27.5697L12.0639 27.7596ZM15.7342 30.9024L15.8968 30.7125V30.7125L15.7342 30.9024ZM16.9174 31.9157L16.7548 32.1055L17.0506 32.3589L17.1578 31.9844L16.9174 31.9157ZM17.346 30.418L17.1056 30.3492V30.3492L17.346 30.418ZM19.39 23.2751L19.1497 23.2063L19.39 23.2751ZM19.5797 22.6124L19.4907 22.3787L19.3738 22.4233L19.3393 22.5436L19.5797 22.6124ZM19.7258 22.5567L19.8148 22.7903L20.1457 22.6643L19.9161 22.3947L19.7258 22.5567ZM19.6284 22.4423L19.388 22.3735L19.3511 22.5023L19.438 22.6043L19.6284 22.4423ZM19.6651 22.3137L19.9055 22.3825L19.9743 22.1421L19.7339 22.0734L19.6651 22.3137ZM19.4718 22.2584L19.2815 22.4204L19.3304 22.478L19.403 22.4987L19.4718 22.2584ZM18.8076 21.4781L18.6172 21.6402L18.8076 21.4781ZM9.76144 10.8518L9.9518 10.6898L9.76144 10.8518ZM8.35176 10.7386L8.51382 10.929L8.35176 10.7386ZM8.23853 12.1483L8.04817 12.3103L8.23853 12.1483ZM16.3665 21.696L16.4555 21.9297L16.7864 21.8036L16.5569 21.534L16.3665 21.696ZM3.93512 26.431L3.68538 26.4425L3.70135 26.7875L4.0241 26.6646L3.93512 26.431ZM2.89792 4.02074L3.0219 3.80365L2.62717 3.57822L2.64819 4.0323L2.89792 4.02074ZM27.616 18.137L27.6873 18.3767L28.2477 18.2099L27.7399 17.9199L27.616 18.137ZM21.2148 20.0416L21.2861 20.2812H21.2861L21.2148 20.0416ZM20.5415 21.2852L20.7811 21.2139V21.2139L20.5415 21.2852ZM21.7852 21.9585L21.7139 21.7189L21.7852 21.9585ZM30.428 19.387L30.4993 19.6266L30.428 19.387ZM32.6697 18.72L32.741 18.9597L33.3014 18.7929L32.7937 18.5029L32.6697 18.72ZM30.6388 17.5602L30.7627 17.3431L30.6388 17.5602ZM0.607954 0.697683L2.18687 1.59939L2.43483 1.1652L0.855913 0.263499L0.607954 0.697683ZM1.06573 2.28534L0.981666 0.469033L0.482201 0.492149L0.566264 2.30846L1.06573 2.28534ZM2.25086 27.8919L1.06573 2.28534L0.566264 2.30846L1.75139 27.915L2.25086 27.8919ZM2.31473 29.2719L2.25086 27.8919L1.75139 27.915L1.81526 29.295L2.31473 29.2719ZM3.26701 28.5581L1.97601 29.0498L2.15398 29.517L3.44498 29.0253L3.26701 28.5581ZM17.1559 23.268L3.26701 28.5581L3.44498 29.0253L17.3339 23.7353L17.1559 23.268ZM16.0921 28.4388L17.4853 23.5704L17.0046 23.4328L15.6114 28.3013L16.0921 28.4388ZM13.2021 26.4303L15.6892 28.56L16.0144 28.1802L13.5274 26.0505L13.2021 26.4303ZM12.1446 26.5122C12.4141 26.1976 12.8875 26.1609 13.2021 26.4303L13.5274 26.0505C13.003 25.6015 12.2139 25.6626 11.7649 26.187L12.1446 26.5122ZM12.2265 27.5697C11.9119 27.3003 11.8752 26.8268 12.1446 26.5122L11.7649 26.187C11.3158 26.7113 11.3769 27.5004 11.9013 27.9495L12.2265 27.5697ZM15.8968 30.7125L12.2265 27.5697L11.9013 27.9495L15.5716 31.0923L15.8968 30.7125ZM17.08 31.7258L15.8968 30.7125L15.5716 31.0923L16.7548 32.1055L17.08 31.7258ZM17.1056 30.3492L16.6771 31.8469L17.1578 31.9844L17.5863 30.4868L17.1056 30.3492ZM19.1497 23.2063L17.1056 30.3492L17.5863 30.4868L19.6304 23.3439L19.1497 23.2063ZM19.3393 22.5436L19.1497 23.2063L19.6304 23.3439L19.82 22.6811L19.3393 22.5436ZM19.6368 22.3231L19.4907 22.3787L19.6687 22.846L19.8148 22.7903L19.6368 22.3231ZM19.438 22.6043L19.5354 22.7188L19.9161 22.3947L19.8187 22.2802L19.438 22.6043ZM19.4248 22.2449L19.388 22.3735L19.8687 22.511L19.9055 22.3825L19.4248 22.2449ZM19.403 22.4987L19.5964 22.5541L19.7339 22.0734L19.5406 22.018L19.403 22.4987ZM18.6172 21.6402L19.2815 22.4204L19.6622 22.0963L18.998 21.3161L18.6172 21.6402ZM9.57107 11.0139L18.6172 21.6402L18.998 21.3161L9.9518 10.6898L9.57107 11.0139ZM8.51382 10.929C8.82922 10.6605 9.30257 10.6985 9.57107 11.0139L9.9518 10.6898C9.5043 10.1641 8.71538 10.1007 8.18971 10.5482L8.51382 10.929ZM8.4289 11.9862C8.16039 11.6708 8.19842 11.1975 8.51382 10.929L8.18971 10.5482C7.66404 10.9957 7.60067 11.7847 8.04817 12.3103L8.4289 11.9862ZM16.5569 21.534L8.4289 11.9862L8.04817 12.3103L16.1762 21.8581L16.5569 21.534ZM4.0241 26.6646L16.4555 21.9297L16.2775 21.4624L3.84613 26.1973L4.0241 26.6646ZM2.64819 4.0323L3.68538 26.4425L4.18485 26.4194L3.14765 4.00918L2.64819 4.0323ZM27.7399 17.9199L3.0219 3.80365L2.77394 4.23783L27.492 18.3541L27.7399 17.9199ZM21.2861 20.2812L27.6873 18.3767L27.5447 17.8974L21.1435 19.802L21.2861 20.2812ZM20.7811 21.2139C20.663 20.8169 20.8891 20.3993 21.2861 20.2812L21.1435 19.802C20.4818 19.9988 20.105 20.6948 20.3019 21.3565L20.7811 21.2139ZM21.7139 21.7189C21.3169 21.837 20.8993 21.611 20.7811 21.2139L20.3019 21.3565C20.4988 22.0182 21.1948 22.395 21.8565 22.1981L21.7139 21.7189ZM30.3567 19.1474L21.7139 21.7189L21.8565 22.1981L30.4993 19.6266L30.3567 19.1474ZM32.5984 18.4804L30.3567 19.1474L30.4993 19.6266L32.741 18.9597L32.5984 18.4804ZM30.5148 17.7773L32.5457 18.9371L32.7937 18.5029L30.7627 17.3431L30.5148 17.7773ZM2.18687 1.59939L30.5148 17.7773L30.7627 17.3431L2.43483 1.1652L2.18687 1.59939Z" fill="#59A4FB"/>
</svg>
